<svg xmlns="http://www.w3.org/2000/svg" width="15.5cm" height="13.2339746cm" viewBox="0 0 15.5 13.2339746">
  <style>
    path {
      fill: black;
    }
    @media (prefers-color-scheme: dark) {
      path {
        fill: white;
      }
    }
  </style>
  <g fill-rule="evenodd" transform="matrix(1,0,0,-1,14.05,6.6169873)">
    <path d="
      M1.45,-3.0113249
      L1.45,3.0113249
      A0.5,0.5 0 0,1 1.2,3.4443376
      L-4.1791651,6.55
      A0.5,0.5 60 0,1 -4.8621778,6.3669873
      L-6.0305155,4.3433672
      A0.1454346,0.1454346 150 0,1 -6.05,4.2706499
      L-6.05,-4.2706499
      A0.1454346,0.1454346 180 0,1 -6.0305155,-4.3433672
      L-4.8621778,-6.3669873
      A0.5,0.5 210 0,1 -4.1791651,-6.55
      L1.2,-3.4443376
      A0.5,0.5 300 0,1 1.45,-3.0113249
      Z
      M-1.45,1.2113249
      L-1.45,-1.2113249
      A0.5,0.5 0 0,0 -1.7,-1.6443376
      L-3.7,-2.7990381
      A0.5,0.5 300 0,0 -4.45,-2.3660254
      L-4.45,2.3660254
      A0.5,0.5 180 0,0 -3.7,2.7990381
      L-1.7,1.6443376
      A0.5,0.5 60 0,0 -1.45,1.2113249
      Z
      M-14.05,3.0113249
      L-14.05,-3.0113249
      A0.5,0.5 180 0,1 -13.8,-3.4443376
      L-8.4208349,-6.55
      A0.5,0.5 240 0,1 -7.7378222,-6.3669873
      L-6.5694845,-4.3433672
      A0.1454346,0.1454346 330 0,1 -6.55,-4.2706499
      L-6.55,4.2706499
      A0.1454346,0.1454346 0 0,1 -6.5694845,4.3433672
      L-7.7378222,6.3669873
      A0.5,0.5 30 0,1 -8.4208349,6.55
      L-13.8,3.4443376
      A0.5,0.5 120 0,1 -14.05,3.0113249
      Z
      M-11.15,-1.2113249
      L-11.15,1.2113249
      A0.5,0.5 180 0,0 -10.9,1.6443376
      L-8.9,2.7990381
      A0.5,0.5 120 0,0 -8.15,2.3660254
      L-8.15,-2.3660254
      A0.5,0.5 0 0,0 -8.9,-2.7990381
      L-10.9,-1.6443376
      A0.5,0.5 240 0,0 -11.15,-1.2113249
      Z
    "/>
  </g>
</svg>
